#Comment line ignore any data following # character 
#Hierarchical Translation and Rotation (.htr) file 
[Header]	
#Header keywords are followed by a single value 
FileType HTR		#Single word string
DataType HTRS		#Translation followed by rotation and scale data
FileVersion 1		#integer
NumSegments 84		#integer
NumFrames 2		#integer
DataFrameRate 30		#integer, data frame rate in this file
EulerRotationOrder ZYX
CalibrationUnits mm
RotationUnits Degrees
GlobalAxisofGravity Y
BoneLengthAxis Y
ScaleFactor 1.00
[SegmentNames&Hierarchy]
#CHILD	PARENT
MASTER GLOBAL
root MASTER
chest root
L_mid_tent01 root
R_mid_tent01 root
spine01 root
Bip01_Neck chest
L_humerus chest
R_humerus chest
weapon_bone chest
Bip01_Head Bip01_Neck
eye_left_bone Bip01_Head
eye_right_bone Bip01_Head
L_forearm L_humerus
L_front_hand L_forearm
L_weapon_bone L_forearm
L_front_hand01_01 L_front_hand
L_front_hand02_01 L_front_hand
L_front_hand03_01 L_front_hand
L_front_hand01_02 L_front_hand01_01
L_front_hand02_02 L_front_hand02_01
L_front_hand03_02 L_front_hand03_01
R_forearm R_humerus
R_front_hand R_forearm
R_weapon_bone R_forearm
R_front_hand01_01 R_front_hand
R_front_hand02_01 R_front_hand
R_front_hand03_01 R_front_hand
R_front_hand01_02 R_front_hand01_01
R_front_hand02_02 R_front_hand02_01
R_front_hand03_02 R_front_hand03_01
null_rope01_connect L_mid_tent01
Rope1_Seg01 null_rope01_connect
Rope1_Seg02 Rope1_Seg01
Rope1_Seg03 Rope1_Seg02
Rope1_Seg04 Rope1_Seg03
Rope1_Seg05 Rope1_Seg04
Rope1_Seg06 Rope1_Seg05
Rope1_Seg07 Rope1_Seg06
Rope1_Seg09 Rope1_Seg07
L_mid_hand01 Rope1_Seg09
L_mid_hand02 Rope1_Seg09
L_mid_hand03 Rope1_Seg09
null_rope02_connect R_mid_tent01
Rope2_Seg01 null_rope02_connect
Rope2_Seg02 Rope2_Seg01
Rope2_Seg03 Rope2_Seg02
Rope2_Seg04 Rope2_Seg03
Rope2_Seg05 Rope2_Seg04
Rope2_Seg06 Rope2_Seg05
Rope2_Seg07 Rope2_Seg06
Rope2_Seg09 Rope2_Seg07
R_mid_hand01 Rope2_Seg09
R_mid_hand02 Rope2_Seg09
R_mid_hand03 Rope2_Seg09
spine02 spine01
spine03 spine02
pelvis spine03
null_rope03_connect pelvis
null_rope04_connect pelvis
Rope3_Seg01 null_rope03_connect
Rope3_Seg02 Rope3_Seg01
Rope3_Seg03 Rope3_Seg02
Rope3_Seg04 Rope3_Seg03
Rope3_Seg05 Rope3_Seg04
Rope3_Seg06 Rope3_Seg05
Rope3_Seg07 Rope3_Seg06
Rope3_Seg08 Rope3_Seg07
Rope3_Seg09 Rope3_Seg08
R_rear_hand01 Rope3_Seg09
R_rear_hand02 Rope3_Seg09
R_rear_hand03 Rope3_Seg09
Rope4_Seg01 null_rope04_connect
Rope4_Seg02 Rope4_Seg01
Rope4_Seg03 Rope4_Seg02
Rope4_Seg04 Rope4_Seg03
Rope4_Seg05 Rope4_Seg04
Rope4_Seg06 Rope4_Seg05
Rope4_Seg07 Rope4_Seg06
Rope4_Seg08 Rope4_Seg07
Rope4_Seg09 Rope4_Seg08
L_rear_hand01 Rope4_Seg09
L_rear_hand02 Rope4_Seg09
L_rear_hand03 Rope4_Seg09
[BasePosition]
#SegmentName Tx, Ty, Tz, Rx, Ry, Rz, BoneLength
MASTER 0.000000 0.000000 0.000000 -90.000000 0.000000 0.000000 10.000000 
root 0.000000 0.000000 0.000000 0.000000 0.000000 0.000000 10.000000 
chest 0.000000 0.000000 0.000000 0.000000 0.000000 0.000000 10.000000 
L_mid_tent01 0.000000 0.000000 0.000000 0.000000 0.000000 0.000000 10.000000 
R_mid_tent01 0.000000 0.000000 0.000000 0.000000 0.000000 0.000000 10.000000 
spine01 0.000000 0.000000 0.000000 0.000000 0.000000 0.000000 10.000000 
Bip01_Neck 0.000000 0.000000 0.000000 0.000000 0.000000 0.000000 10.000000 
L_humerus 0.000000 0.000000 0.000000 0.000000 0.000000 0.000000 10.000000 
R_humerus 0.000000 0.000000 0.000000 0.000000 0.000000 0.000000 10.000000 
weapon_bone 0.000000 0.000000 0.000000 0.000000 0.000000 0.000000 10.000000 
Bip01_Head 0.000000 0.000000 0.000000 0.000000 0.000000 0.000000 10.000000 
eye_left_bone 0.000000 0.000000 0.000000 0.000000 0.000000 0.000000 10.000000 
eye_right_bone 0.000000 0.000000 0.000000 0.000000 0.000000 0.000000 10.000000 
L_forearm 0.000000 0.000000 0.000000 0.000000 0.000000 0.000000 10.000000 
L_front_hand 0.000000 0.000000 0.000000 0.000000 0.000000 0.000000 10.000000 
L_weapon_bone 0.000000 0.000000 0.000000 0.000000 0.000000 0.000000 10.000000 
L_front_hand01_01 0.000000 0.000000 0.000000 0.000000 0.000000 0.000000 10.000000 
L_front_hand02_01 0.000000 0.000000 0.000000 0.000000 0.000000 0.000000 10.000000 
L_front_hand03_01 0.000000 0.000000 0.000000 0.000000 0.000000 0.000000 10.000000 
L_front_hand01_02 0.000000 0.000000 0.000000 0.000000 0.000000 0.000000 10.000000 
L_front_hand02_02 0.000000 0.000000 0.000000 0.000000 0.000000 0.000000 10.000000 
L_front_hand03_02 0.000000 0.000000 0.000000 0.000000 0.000000 0.000000 10.000000 
R_forearm 0.000000 0.000000 0.000000 0.000000 0.000000 0.000000 10.000000 
R_front_hand 0.000000 0.000000 0.000000 0.000000 0.000000 0.000000 10.000000 
R_weapon_bone 0.000000 0.000000 0.000000 0.000000 0.000000 0.000000 10.000000 
R_front_hand01_01 0.000000 0.000000 0.000000 0.000000 0.000000 0.000000 10.000000 
R_front_hand02_01 0.000000 0.000000 0.000000 0.000000 0.000000 0.000000 10.000000 
R_front_hand03_01 0.000000 0.000000 0.000000 0.000000 0.000000 0.000000 10.000000 
R_front_hand01_02 0.000000 0.000000 0.000000 0.000000 0.000000 0.000000 10.000000 
R_front_hand02_02 0.000000 0.000000 0.000000 0.000000 0.000000 0.000000 10.000000 
R_front_hand03_02 0.000000 0.000000 0.000000 0.000000 0.000000 0.000000 10.000000 
null_rope01_connect 0.000000 0.000000 0.000000 0.000000 0.000000 0.000000 10.000000 
Rope1_Seg01 0.000000 0.000000 0.000000 0.000000 0.000000 0.000000 10.000000 
Rope1_Seg02 0.000000 0.000000 0.000000 0.000000 0.000000 0.000000 10.000000 
Rope1_Seg03 0.000000 0.000000 0.000000 0.000000 0.000000 0.000000 10.000000 
Rope1_Seg04 0.000000 0.000000 0.000000 0.000000 0.000000 0.000000 10.000000 
Rope1_Seg05 0.000000 0.000000 0.000000 0.000000 0.000000 0.000000 10.000000 
Rope1_Seg06 0.000000 0.000000 0.000000 0.000000 0.000000 0.000000 10.000000 
Rope1_Seg07 0.000000 0.000000 0.000000 0.000000 0.000000 0.000000 10.000000 
Rope1_Seg09 0.000000 0.000000 0.000000 0.000000 0.000000 0.000000 10.000000 
L_mid_hand01 0.000000 0.000000 0.000000 0.000000 0.000000 0.000000 10.000000 
L_mid_hand02 0.000000 0.000000 0.000000 0.000000 0.000000 0.000000 10.000000 
L_mid_hand03 0.000000 0.000000 0.000000 0.000000 0.000000 0.000000 10.000000 
null_rope02_connect 0.000000 0.000000 0.000000 0.000000 0.000000 0.000000 10.000000 
Rope2_Seg01 0.000000 0.000000 0.000000 0.000000 0.000000 0.000000 10.000000 
Rope2_Seg02 0.000000 0.000000 0.000000 0.000000 0.000000 0.000000 10.000000 
Rope2_Seg03 0.000000 0.000000 0.000000 0.000000 0.000000 0.000000 10.000000 
Rope2_Seg04 0.000000 0.000000 0.000000 0.000000 0.000000 0.000000 10.000000 
Rope2_Seg05 0.000000 0.000000 0.000000 0.000000 0.000000 0.000000 10.000000 
Rope2_Seg06 0.000000 0.000000 0.000000 0.000000 0.000000 0.000000 10.000000 
Rope2_Seg07 0.000000 0.000000 0.000000 0.000000 0.000000 0.000000 10.000000 
Rope2_Seg09 0.000000 0.000000 0.000000 0.000000 0.000000 0.000000 10.000000 
R_mid_hand01 0.000000 0.000000 0.000000 0.000000 0.000000 0.000000 10.000000 
R_mid_hand02 0.000000 0.000000 0.000000 0.000000 0.000000 0.000000 10.000000 
R_mid_hand03 0.000000 0.000000 0.000000 0.000000 0.000000 0.000000 10.000000 
spine02 0.000000 0.000000 0.000000 0.000000 0.000000 0.000000 10.000000 
spine03 0.000000 0.000000 0.000000 0.000000 0.000000 0.000000 10.000000 
pelvis 0.000000 0.000000 0.000000 0.000000 0.000000 0.000000 10.000000 
null_rope03_connect 0.000000 0.000000 0.000000 0.000000 0.000000 0.000000 10.000000 
null_rope04_connect 0.000000 0.000000 0.000000 0.000000 0.000000 0.000000 10.000000 
Rope3_Seg01 0.000000 0.000000 0.000000 0.000000 0.000000 0.000000 10.000000 
Rope3_Seg02 0.000000 0.000000 0.000000 0.000000 0.000000 0.000000 10.000000 
Rope3_Seg03 0.000000 0.000000 0.000000 0.000000 0.000000 0.000000 10.000000 
Rope3_Seg04 0.000000 0.000000 0.000000 0.000000 0.000000 0.000000 10.000000 
Rope3_Seg05 0.000000 0.000000 0.000000 0.000000 0.000000 0.000000 10.000000 
Rope3_Seg06 0.000000 0.000000 0.000000 0.000000 0.000000 0.000000 10.000000 
Rope3_Seg07 0.000000 0.000000 0.000000 0.000000 0.000000 0.000000 10.000000 
Rope3_Seg08 0.000000 0.000000 0.000000 0.000000 0.000000 0.000000 10.000000 
Rope3_Seg09 0.000000 0.000000 0.000000 0.000000 0.000000 0.000000 10.000000 
R_rear_hand01 0.000000 0.000000 0.000000 0.000000 0.000000 0.000000 10.000000 
R_rear_hand02 0.000000 0.000000 0.000000 0.000000 0.000000 0.000000 10.000000 
R_rear_hand03 0.000000 0.000000 0.000000 0.000000 0.000000 0.000000 10.000000 
Rope4_Seg01 0.000000 0.000000 0.000000 0.000000 0.000000 0.000000 10.000000 
Rope4_Seg02 0.000000 0.000000 0.000000 0.000000 0.000000 0.000000 10.000000 
Rope4_Seg03 0.000000 0.000000 0.000000 0.000000 0.000000 0.000000 10.000000 
Rope4_Seg04 0.000000 0.000000 0.000000 0.000000 0.000000 0.000000 10.000000 
Rope4_Seg05 0.000000 0.000000 0.000000 0.000000 0.000000 0.000000 10.000000 
Rope4_Seg06 0.000000 0.000000 0.000000 0.000000 0.000000 0.000000 10.000000 
Rope4_Seg07 0.000000 0.000000 0.000000 0.000000 0.000000 0.000000 10.000000 
Rope4_Seg08 0.000000 0.000000 0.000000 0.000000 0.000000 0.000000 10.000000 
Rope4_Seg09 0.000000 0.000000 0.000000 0.000000 0.000000 0.000000 10.000000 
L_rear_hand01 0.000000 0.000000 0.000000 0.000000 0.000000 0.000000 10.000000 
L_rear_hand02 0.000000 0.000000 0.000000 0.000000 0.000000 0.000000 10.000000 
L_rear_hand03 0.000000 0.000000 0.000000 0.000000 0.000000 0.000000 10.000000 
#Beginning of Data. Separated by tabs
#Fr	Tx	Ty	Tz	Rx	Ry	Rz	SF
[MASTER]
76 -0.000578 3856.061035 0.000000 0.001660 0.001660 0.001660 3856.061035
77 -0.000579 3863.197266 0.000000 0.001660 0.001660 0.001660 3863.197266
[root]
76 -143.520798 181.245728 874.878967 -98.378395 -34.848988 -99.004066 904.909607
77 -83.606766 181.245728 879.424438 -100.414444 -34.519482 -97.574310 901.791260
[chest]
76 -84.512650 -34.090519 0.000000 -6.079603 -13.765643 -172.088974 91.129311
77 -84.512650 -34.090519 0.000000 -5.921061 -13.738873 -172.505066 91.129311
[L_mid_tent01]
76 27.632139 21.986692 -252.056808 -12.192662 57.143925 53.251343 254.518341
77 27.623987 21.991371 -252.004379 -10.570011 57.316174 55.159161 254.465942
[R_mid_tent01]
76 23.228794 24.509907 226.238495 152.690979 -49.174221 131.555435 228.744751
77 23.228794 24.509907 226.238495 152.627930 -50.525955 131.907471 228.744751
[spine01]
76 -0.361383 -0.195265 0.000000 0.001869 0.001420 15.534141 0.410763
77 -0.361383 -0.195265 0.000000 0.001869 0.001420 15.534141 0.410763
[Bip01_Neck]
76 165.484543 71.581718 0.000119 175.896118 1.177290 24.871183 180.302734
77 165.484543 71.581718 0.000119 175.896118 1.177290 24.871183 180.302734
[L_humerus]
76 -13.983130 -135.272980 -120.471481 178.023987 53.300831 -62.818977 181.680161
77 -13.983130 -135.272980 -120.471481 177.765671 53.636692 -63.051022 181.680161
[R_humerus]
76 -13.983309 -135.273102 125.287651 178.781952 -45.993790 -60.955498 184.909012
77 -13.983309 -135.273102 125.287651 179.062164 -46.108963 -61.133842 184.909012
[weapon_bone]
76 235.964890 -300.705902 0.000000 0.000000 -89.951546 -128.212341 382.234833
77 235.964890 -300.705902 0.000000 0.000000 -89.951546 -128.212341 382.234833
[Bip01_Head]
76 171.112488 136.899506 22.719881 26.489853 16.304447 -76.874733 220.311478
77 171.653183 138.649536 22.449682 25.200233 16.303867 -76.870544 221.793808
[eye_left_bone]
76 -24.626970 125.451866 -64.772606 0.000000 -90.000000 -99.840431 143.318359
77 -24.626970 125.451866 -64.772606 0.000000 -90.000000 -99.840431 143.318359
[eye_right_bone]
76 -24.626970 125.451866 64.327362 0.000000 -89.960434 80.159386 143.117676
77 -24.626970 125.451866 64.327362 0.000000 -89.960434 80.159386 143.117676
[L_forearm]
76 322.776093 0.000000 -0.000119 0.000368 0.002320 -71.948479 322.776093
77 322.776093 0.000000 -0.000119 0.000404 0.002313 -70.165222 322.776093
[L_front_hand]
76 241.149185 -0.042021 -3.300071 -178.667953 -1.835447 -27.422342 241.171753
77 241.149185 -0.042021 -3.300071 -178.667953 -1.835447 -27.422350 241.171753
[L_weapon_bone]
76 156.183838 0.000000 0.000000 0.000014 0.000007 0.000001 156.183838
77 156.183838 0.000000 0.000000 0.000014 0.000007 0.000001 156.183838
[L_front_hand01_01]
76 86.095154 20.947098 -0.655860 -0.366594 -0.477154 75.385582 88.609184
77 86.095154 20.947098 -0.655860 -0.366594 -0.477154 75.385574 88.609184
[L_front_hand02_01]
76 86.935165 -11.437475 24.513514 154.403519 -59.888931 -61.371990 91.046425
77 86.935165 -11.437475 24.513514 154.403519 -59.888931 -61.371990 91.046425
[L_front_hand03_01]
76 86.637497 -14.123976 -20.424902 -153.913849 58.118130 -62.702866 90.126129
77 86.637497 -14.123976 -20.424902 -153.913849 58.118122 -62.702866 90.126129
[L_front_hand01_02]
76 71.020905 -0.000179 0.000030 0.000334 -0.002323 -106.379684 71.020905
77 71.020905 -0.000179 0.000030 0.000334 -0.002323 -106.379684 71.020905
[L_front_hand02_02]
76 71.020927 -0.000119 0.000060 0.000334 -0.002323 -106.379684 71.020927
77 71.020927 -0.000119 0.000060 0.000334 -0.002323 -106.379684 71.020927
[L_front_hand03_02]
76 71.020905 -0.000060 0.000060 0.000334 -0.002323 -106.379684 71.020905
77 71.020905 -0.000060 0.000060 0.000334 -0.002323 -106.379684 71.020905
[R_forearm]
76 322.776428 -0.000060 0.000030 0.194775 -0.085728 -67.413994 322.776428
77 322.776428 -0.000060 0.000030 0.192757 -0.089604 -66.249306 322.776428
[R_front_hand]
76 238.847015 -0.006795 2.210259 -1.531694 0.790216 -51.443062 238.857239
77 238.847015 -0.006795 2.210259 -1.531694 0.790216 -51.443054 238.857239
[R_weapon_bone]
76 155.664093 0.002503 -0.000030 0.003487 0.001180 -90.988930 155.664078
77 155.664093 0.002503 -0.000030 0.003487 0.001180 -90.988930 155.664078
[R_front_hand01_01]
76 87.624611 14.231146 22.918642 -154.633484 -59.950619 61.746037 91.683487
77 87.624611 14.231146 22.918642 -154.633499 -59.950619 61.746044 91.683487
[R_front_hand02_01]
76 89.356956 14.367283 -19.491137 154.602661 58.302856 63.744389 92.579636
77 89.356956 14.367283 -19.491137 154.602661 58.302849 63.744389 92.579636
[R_front_hand03_01]
76 87.286232 -22.307278 -0.143439 0.162155 -0.423168 -75.767921 90.091743
77 87.286232 -22.307278 -0.143439 0.162155 -0.423168 -75.767921 90.091743
[R_front_hand01_02]
76 71.020905 0.000060 0.000119 0.002323 -0.000334 106.381714 71.020905
77 71.020905 0.000060 0.000119 0.002323 -0.000334 106.381714 71.020905
[R_front_hand02_02]
76 71.020844 -0.000030 -0.000119 0.002323 -0.000334 106.381714 71.020836
77 71.020844 -0.000030 -0.000119 0.002323 -0.000334 106.381714 71.020836
[R_front_hand03_02]
76 71.020905 0.000000 0.000030 0.002323 -0.000334 106.381714 71.020905
77 71.020905 0.000000 0.000030 0.002323 -0.000334 106.381714 71.020905
[null_rope01_connect]
76 328.732483 0.000000 -0.000238 -122.611526 -16.720205 -174.068680 328.732483
77 328.732483 0.000000 -0.000238 -123.606590 -16.102989 -173.548660 328.732483
[Rope1_Seg01]
76 2.516716 -7.214963 -2.370450 12.341226 -2.402859 -99.113197 8.000536
77 2.453920 -7.189942 -2.509838 15.577276 -3.086304 -101.157303 8.001017
[Rope1_Seg02]
76 139.999863 -0.000179 0.000000 7.305798 -2.945848 -3.776179 139.999863
77 139.999863 -0.000179 0.000000 7.811837 -3.130264 -3.897309 139.999863
[Rope1_Seg03]
76 139.999924 0.000060 -0.000060 13.836982 -6.293964 -6.288177 139.999924
77 139.999924 0.000060 -0.000060 14.525027 -6.671566 -6.364995 139.999924
[Rope1_Seg04]
76 139.999924 -0.000060 -0.000119 28.162867 -18.804064 -11.891053 139.999924
77 139.999924 -0.000060 -0.000119 27.650578 -19.236027 -11.219104 139.999924
[Rope1_Seg05]
76 139.999832 0.000119 -0.000060 17.962080 -51.451584 -0.520595 139.999832
77 139.999832 0.000119 -0.000060 15.776872 -49.402195 1.668670 139.999832
[Rope1_Seg06]
76 139.999954 0.000119 -0.000060 -2.038758 -24.047201 4.872406 139.999954
77 139.999954 0.000119 -0.000060 -1.713041 -23.474112 4.698203 139.999954
[Rope1_Seg07]
76 139.999985 0.000060 0.000000 -2.912007 -11.990281 -3.239803 139.999985
77 139.999985 0.000060 0.000000 -2.456914 -11.127082 -3.701124 139.999985
[Rope1_Seg09]
76 121.602913 0.000119 -0.000089 -89.793175 -1.359789 0.847147 121.602913
77 121.602913 0.000119 -0.000089 -89.793175 -1.359789 0.847147 121.602913
[L_mid_hand01]
76 103.859421 1.038730 8.195221 116.294914 -23.111715 -31.758034 104.187431
77 103.859421 1.038730 8.195221 116.294914 -23.111713 -31.758034 104.187431
[L_mid_hand02]
76 105.572853 -4.139662 -10.864139 -144.219833 17.447470 -35.360519 106.211075
77 105.572853 -4.139662 -10.864139 -144.219833 17.447468 -35.360519 106.211075
[L_mid_hand03]
76 104.641464 17.579376 -3.913581 -17.830778 17.153103 31.982925 106.179977
77 104.641464 17.579376 -3.913581 -17.830780 17.153103 31.982925 106.179977
[null_rope02_connect]
76 328.732849 0.000179 -0.000119 -161.842407 47.261162 8.267653 328.732849
77 328.732849 0.000179 -0.000119 -162.168930 47.448551 8.538699 328.732849
[Rope2_Seg01]
76 0.000038 0.000381 0.000076 -42.930576 -5.695672 22.369665 0.000391
77 0.000038 0.000385 0.000077 -46.126564 -5.865933 39.483326 0.000394
[Rope2_Seg02]
76 139.999741 -0.000060 -0.000119 -5.779403 11.791105 63.012135 139.999756
77 139.999741 -0.000060 -0.000119 7.802924 11.954350 61.398888 139.999756
[Rope2_Seg03]
76 140.000107 0.000030 0.000000 1.965880 0.272235 24.853792 140.000107
77 140.000107 0.000030 0.000000 4.269204 5.446747 21.443327 140.000107
[Rope2_Seg04]
76 139.999802 0.000000 -0.000060 5.376388 6.581251 21.327072 139.999802
77 139.999802 0.000000 -0.000060 5.779655 8.779942 21.765640 139.999802
[Rope2_Seg05]
76 139.999985 -0.000060 0.000119 5.006779 7.037735 18.006973 139.999985
77 139.999985 -0.000060 0.000119 4.411753 8.609362 17.577044 139.999985
[Rope2_Seg06]
76 139.999893 -0.000030 -0.000119 2.488736 4.387299 9.786758 139.999893
77 139.999893 -0.000030 -0.000119 1.841619 5.227382 9.379957 139.999893
[Rope2_Seg07]
76 139.999893 0.000060 -0.000060 1.154597 2.476273 5.000028 139.999893
77 139.999893 0.000060 -0.000060 0.713743 2.769511 4.670598 139.999893
[Rope2_Seg09]
76 121.338966 0.000089 -0.000060 33.793236 -1.359788 -0.847141 121.338966
77 121.338966 0.000089 -0.000060 33.793236 -1.359788 -0.847141 121.338966
[R_mid_hand01]
76 104.680779 11.144459 -10.335981 -41.523792 25.424656 28.595957 105.778534
77 104.680779 11.144459 -10.335981 -41.523792 25.424656 28.595957 105.778534
[R_mid_hand02]
76 104.070427 2.443552 8.231699 72.847389 -32.746803 10.013901 104.424065
77 104.070427 2.443552 8.231699 72.847389 -32.746803 10.013901 104.424065
[R_mid_hand03]
76 106.028137 -11.221827 -5.996406 -167.901306 10.259192 -37.009720 106.788818
77 106.028137 -11.221827 -5.996406 -167.901306 10.259192 -37.009720 106.788818
[spine02]
76 129.756927 0.001550 0.000119 -0.245322 -4.052059 -4.355546 129.756927
77 129.756927 0.001550 0.000119 -0.245322 -4.052060 -4.355547 129.756927
[spine03]
76 78.614136 0.087280 -4.898819 0.369658 4.260732 -4.885719 78.766670
77 78.614143 0.087280 -4.898820 0.369659 4.260735 -4.885721 78.766678
[pelvis]
76 169.435242 0.051022 0.000000 -0.010007 -0.191417 -1.897554 169.435257
77 169.435242 0.051022 0.000000 -0.010007 -0.191417 -1.897554 169.435257
[null_rope03_connect]
76 -1.257226 -2.466202 137.391083 -115.731682 -74.963448 -124.322014 137.418976
77 -1.257226 -2.466202 137.391083 -121.913834 -74.427322 -118.499779 137.418976
[null_rope04_connect]
76 -1.259640 -2.480268 -137.844437 -115.731682 -74.963448 -124.322014 137.872513
77 -1.259640 -2.480268 -137.844437 -121.913834 -74.427322 -118.499779 137.872513
[Rope3_Seg01]
76 -0.000005 0.000305 -0.000153 -98.117470 14.245054 -13.896289 0.000341
77 -0.000005 0.000309 -0.000155 -104.745361 12.306115 -18.805984 0.000346
[Rope3_Seg02]
76 139.999924 -0.000119 0.000060 4.789886 -2.962408 3.022432 139.999924
77 139.999924 -0.000119 0.000060 4.881097 -3.487015 2.839677 139.999924
[Rope3_Seg03]
76 139.999924 -0.000119 0.000119 6.239726 -3.878842 4.697952 139.999924
77 139.999924 -0.000119 0.000119 6.731318 -4.795951 4.664671 139.999924
[Rope3_Seg04]
76 139.999924 0.000119 0.000000 7.915890 -5.143602 7.900315 139.999924
77 139.999924 0.000119 0.000000 9.079046 -6.782393 8.452356 139.999924
[Rope3_Seg05]
76 139.999924 -0.000238 0.000060 10.921068 -8.848733 18.879185 139.999924
77 139.999924 -0.000238 0.000060 12.145239 -11.906072 21.348169 139.999924
[Rope3_Seg06]
76 139.999893 -0.000119 -0.000060 5.274884 -3.962605 18.875185 139.999893
77 139.999893 -0.000119 -0.000060 5.142814 -5.361123 21.141151 139.999893
[Rope3_Seg07]
76 139.999771 0.000060 -0.000119 0.439940 0.962475 0.950013 139.999771
77 139.999771 0.000060 -0.000119 0.696121 0.717643 2.667090 139.999771
[Rope3_Seg08]
76 139.999985 -0.000060 0.000000 0.808916 0.457560 2.695661 139.999985
77 139.999985 -0.000060 0.000000 0.836512 0.239546 4.020205 139.999985
[Rope3_Seg09]
76 90.185997 -0.000179 -0.000060 89.793228 -1.359877 -0.847183 90.185997
77 90.185997 -0.000179 -0.000060 89.793228 -1.359877 -0.847183 90.185997
[R_rear_hand01]
76 103.366196 -6.073594 -10.757982 -158.627975 33.644131 -23.327255 104.101845
77 103.366196 -6.073594 -10.757982 -158.627975 33.644127 -23.327253 104.101845
[R_rear_hand02]
76 100.509819 12.039542 -7.992327 -36.327797 26.496241 23.332451 101.543350
77 100.509819 12.039542 -7.992327 -36.327797 26.496241 23.332451 101.543350
[R_rear_hand03]
76 101.539970 5.215704 5.435467 73.054977 -27.152538 27.950706 101.819031
77 101.539970 5.215704 5.435467 73.054977 -27.152536 27.950705 101.819031
[Rope4_Seg01]
76 -0.000029 0.000019 0.000076 107.035248 -42.637642 -167.815475 0.000084
77 -0.000028 0.000019 0.000075 108.957466 -37.457771 -172.994980 0.000083
[Rope4_Seg02]
76 139.999985 0.000060 0.000119 3.251549 -10.541987 -4.085217 139.999985
77 139.999985 0.000060 0.000119 3.411574 -9.743924 -3.989384 139.999985
[Rope4_Seg03]
76 139.999924 0.000000 -0.000238 13.794574 -12.794805 -4.073935 139.999924
77 139.999924 0.000000 -0.000238 21.073509 -11.432997 -3.804930 139.999924
[Rope4_Seg04]
76 139.999985 0.000000 0.000119 97.108009 -12.746369 1.862309 139.999985
77 139.999985 0.000000 0.000119 111.333023 -11.081751 3.301489 139.999985
[Rope4_Seg05]
76 139.999802 -0.000060 -0.000119 44.394508 -1.409103 12.521620 139.999802
77 139.999802 -0.000060 -0.000119 29.266548 2.563441 11.382524 139.999802
[Rope4_Seg06]
76 139.999924 0.000000 0.000060 23.251493 5.131649 16.642584 139.999924
77 139.999924 0.000000 0.000060 20.227850 5.187361 15.129958 139.999924
[Rope4_Seg07]
76 139.999802 0.000000 0.000000 7.059823 9.378394 10.926690 139.999802
77 139.999802 0.000000 0.000000 6.558385 8.240151 9.852091 139.999802
[Rope4_Seg08]
76 139.999924 0.000000 0.000119 0.322293 6.287647 5.202147 139.999924
77 139.999924 0.000000 0.000119 0.319678 5.653419 4.831959 139.999924
[Rope4_Seg09]
76 90.185791 0.000060 0.000060 -135.617828 2.228885 0.850567 90.185791
77 90.185791 0.000060 0.000060 -135.617828 2.228885 0.850567 90.185791
[L_rear_hand01]
76 101.696655 -8.392275 -7.654577 -33.685818 -15.212530 149.017090 102.329041
77 101.696655 -8.392275 -7.654577 -33.685818 -15.212530 149.017090 102.329041
[L_rear_hand02]
76 102.726799 -1.568258 5.773216 83.407906 30.330435 172.796509 102.900848
77 102.726799 -1.568258 5.773216 83.407906 30.330435 172.796509 102.900848
[L_rear_hand03]
76 104.552910 9.721220 -10.420293 -160.801239 -15.606593 -150.211823 105.519653
77 104.552910 9.721220 -10.420293 -160.801239 -15.606593 -150.211823 105.519653
